<svg xmlns="http://www.w3.org/2000/svg" width="256" height="256" viewBox="0 0 67.733 67.733"><path d="M96.99 167.209c-.748-2.195-2.565-11.586-3.497-18.077l-.556-3.868-6.719-.221c-9.095-.3-13.115-1.292-15.92-3.93-1.372-1.291-2.833-1.462-2.596-.305.085.417.247 1.701.359 2.856.112 1.154.367 2.567.567 3.14.29.83.262 1.142-.14 1.543-.444.445-.581.4-1.206-.393-.788-1.002-1.943-3.887-2.524-6.305l-.384-1.597h-3.788c-2.084 0-3.902-.005-4.04-.01-.34-.014-.671 3.004-.88 8.033-.096 2.286-.237 4.219-.314 4.296-.476.476-1.322-.543-1.792-2.16-.424-1.46-.512-2.868-.393-6.354.118-3.487.057-4.478-.278-4.478-8.033-1.115-.92-2.181-3.634-.796-2.813-1.403-2.772-1.33-2-1.627 16.319 3.922 1.622.54 2.943 1.14 8.485 3.16-5.98-1.387 2.277-.195l1.227.18.412-2.462c.227-1.354.848-3.933 1.38-5.73.532-1.798.967-3.533.967-3.856 0-.554.033-.555.575-.013.73.73.709 4.038-.055 8.781-.295 1.83-.495 3.368-.444 3.418.092.09 5.978.242 7.027.182.454-.027.57-.61.699-3.5.164-3.7.916-6.019 2.016-6.222.717-.132 1.117 1.702.829 3.803-.11.804-.108 2.457.006 3.674.173 1.857.307 2.213.83 2.213.517 0 .625-.264.625-1.527 0-1.745.85-3.613 2.239-4.923 3.916-3.69 14.464-5.086 19.1-2.527 1.644.908 2.968 2.759 2.673 3.737-.848 2.807-5.67 4.745-14.762 5.934-2.959.387-5.432.756-5.496.82-.282.282 2.646 1.855 4.485 2.41 1.662.5 3.236.609 8.912.612l6.895.004.218-2.354c.676-7.276 4.287-10.975 11.233-11.508 5.401-.414 10.922 2.914 10.442 6.295-.448 3.166-8.175 7.505-16.008 8.988-1.737.33-1.607-.578-1.022 7.155.175 2.312.423 6.89.552 10.173.215 5.461.186 5.97-.33 5.97-.312 0-.63-.19-.71-.42zm4.873-26.033c3.401-.952 7.93-3.095 9.041-4.278 1.533-1.63.73-3.727-1.974-5.157-1.768-.935-4.823-1.035-7.174-.234-3.086 1.052-5.274 4.743-5.274 8.898v1.959l1.261-.194c.694-.107 2.548-.554 4.12-.994zm-21.187-3.97c5.797-1.222 9.753-3.057 9.753-4.524 0-.74-1.212-1.886-2.523-2.389-.555-.213-2.37-.466-4.035-.563-7.167-.416-12.948 2.742-12.948 7.075v1.33l3.615-.198c1.988-.11 4.75-.438 6.138-.73zm-12.91 22.414c-.097-.157.484-1.883 1.291-3.836.807-1.952 1.443-3.826 1.414-4.163-.029-.338.193-.665.494-.727.366-.076.886.477 1.567 1.668.561.98 1.798 2.69 2.748 3.8 1.533 1.79 1.65 2.03 1.034 2.127-.831.13-2.908-1.089-3.39-1.988-.344-.643-1.522-.85-2.186-.385-.193.135-.763.958-1.265 1.827-.977 1.691-1.425 2.132-1.707 1.677zm4.16-4.687c-.002-.138-.154-.479-.336-.756-.294-.449-.368-.449-.662 0-.496.756-.414 1.009.331 1.009.37 0 .67-.114.668-.253zm-11.48 4.058c-.232-.28-.41-2.004-.447-4.321l-.061-3.856 1.372.004c1.596.004 4.532 1.275 5.745 2.488 1.505 1.505.8 3.879-1.506 5.071-1.538.796-4.643 1.17-5.103.615zm2.848-.82c1.402-.72 2.584-2.086 2.584-2.985 0-1.143-1.435-2.515-3.326-3.182-.807-.285-1.52-.518-1.584-.518-.065 0-.051.416.03.925.082.509.242 2.098.357 3.531.222 2.772.426 3.006 1.939 2.23zm14.794 1.114c-.844-.522-1.655-6.958-.877-6.958.222 0 1.46.946 2.75 2.102 2.113 1.89 3.052 2.555 2.616 1.85-.316-.513-.35-5.637-.037-5.738.67-.216 1.598 6.694 1.025 7.622-.408.66-.853.441-2.745-1.348-1.008-.954-1.895-1.673-1.97-1.597-.075.075.003.886.175 1.803.327 1.752-.1 2.782-.937 2.264zm6.795-.188c-.61-.445-.607-.472.082-.84.391-.21 1.297-.381 2.014-.381 1.553 0 2.56-.642 2.39-1.524-.133-.697-.983-1.18-3.312-1.885-1.113-.337-1.541-.65-1.617-1.183-.185-1.298 2.508-2.49 4.497-1.99 1.334.334.8 1.028-.72.934-1.55-.096-2.613.42-1.862.904.257.166 1.014.39 1.682.5 2.856.47 4.37 2.386 3.243 4.106-1.062 1.621-4.918 2.44-6.397 1.36z" style="fill:#ea6045;stroke-width:.33630916" transform="translate(-46.804 -112.755)"/></svg>
