<?xml version="1.0" encoding="UTF-8" standalone="no"?>
<!-- Created with Inkscape (http://www.inkscape.org/) -->

<svg
   xmlns:dc="http://purl.org/dc/elements/1.1/"
   xmlns:cc="http://creativecommons.org/ns#"
   xmlns:rdf="http://www.w3.org/1999/02/22-rdf-syntax-ns#"
   xmlns:svg="http://www.w3.org/2000/svg"
   xmlns="http://www.w3.org/2000/svg"
   xmlns:sodipodi="http://sodipodi.sourceforge.net/DTD/sodipodi-0.dtd"
   xmlns:inkscape="http://www.inkscape.org/namespaces/inkscape"
   width="256"
   height="256"
   viewBox="0 0 67.73333 67.733337"
   version="1.1"
   id="svg8"
   inkscape:version="0.92.5 (2060ec1f9f, 2020-04-08)"
   sodipodi:docname="favicon.svg"
   inkscape:export-filename="/home/uyar/Projects/HEPDANS/hepdans.com/assets/static/favicon.png"
   inkscape:export-xdpi="96"
   inkscape:export-ydpi="96">
  <defs
     id="defs2" />
  <sodipodi:namedview
     id="base"
     pagecolor="#ffffff"
     bordercolor="#666666"
     borderopacity="1.0"
     inkscape:pageopacity="0.0"
     inkscape:pageshadow="2"
     inkscape:zoom="3.0742188"
     inkscape:cx="128"
     inkscape:cy="128"
     inkscape:document-units="mm"
     inkscape:current-layer="layer1"
     showgrid="false"
     fit-margin-top="0"
     fit-margin-left="0"
     fit-margin-right="0"
     fit-margin-bottom="0"
     inkscape:window-width="1920"
     inkscape:window-height="1029"
     inkscape:window-x="0"
     inkscape:window-y="0"
     inkscape:window-maximized="1"
     units="px" />
  <metadata
     id="metadata5">
    <rdf:RDF>
      <cc:Work
         rdf:about="">
        <dc:format>image/svg+xml</dc:format>
        <dc:type
           rdf:resource="http://purl.org/dc/dcmitype/StillImage" />
        <dc:title />
      </cc:Work>
    </rdf:RDF>
  </metadata>
  <g
     inkscape:label="Layer 1"
     inkscape:groupmode="layer"
     id="layer1"
     transform="translate(-46.804107,-112.75513)">
    <path
       style="fill:#000000;stroke-width:0.33630916"
       d="m 96.990399,167.2086 c -0.74829,-2.19466 -2.56533,-11.58584 -3.49753,-18.0766 l -0.55547,-3.86757 -6.71939,-0.22143 c -9.094589,-0.29971 -13.11463,-1.29213 -15.919391,-3.92995 -1.372797,-1.2911 -2.833932,-1.46254 -2.59686,-0.30471 0.08522,0.41618 0.246781,1.70105 0.359034,2.85525 0.112247,1.15421 0.367456,2.56716 0.567112,3.1399 0.289811,0.83136 0.261766,1.1426 -0.13908,1.54344 -0.445256,0.44527 -0.581828,0.40074 -1.206385,-0.39327 -0.78804,-1.00182 -1.943168,-3.88643 -2.524634,-6.30455 l -0.384128,-1.59746 H 60.58571 c -2.083382,0 -3.901472,-0.005 -4.0402,-0.0105 -0.339931,-0.0136 -0.67064,3.00484 -0.88017,8.03369 -0.09525,2.2858 -0.236096,4.21894 -0.313017,4.29587 -0.476412,0.4764 -1.322432,-0.54309 -1.792498,-2.16007 -0.424265,-1.45941 -0.511386,-2.86732 -0.393155,-6.35343 0.118263,-3.48699 0.05687,-4.47853 -0.277303,-4.47853 -8.032986,-1.11475 -0.920398,-2.18088 -3.634543,-0.79545 -2.8125,-1.40303 -2.771633,-1.33116 -2.00016,-1.6272 16.319132,3.9218 1.622503,0.54034 2.94333,1.14084 8.484641,3.15839 -5.979186,-1.3878 2.277415,-0.19568 l 1.226765,0.17968 0.412067,-2.46198 c 0.226632,-1.3541 0.847465,-3.93276 1.379627,-5.73036 0.532159,-1.79759 0.967565,-3.53259 0.967565,-3.85554 0,-0.55387 0.03263,-0.55458 0.574797,-0.0131 0.729437,0.72943 0.708536,4.03842 -0.05547,8.78154 -0.294726,1.82973 -0.494313,3.36781 -0.443521,3.41795 0.09143,0.0902 5.977647,0.24203 7.02668,0.18117 0.453817,-0.0263 0.57013,-0.60888 0.698685,-3.49939 0.164546,-3.69972 0.916283,-6.01904 2.016697,-6.22205 0.716794,-0.13224 1.116215,1.7018 0.828218,3.80296 -0.110129,0.80351 -0.107239,2.45675 0.0065,3.67388 0.173404,1.85705 0.307009,2.21302 0.830628,2.21302 0.516148,0 0.623989,-0.26387 0.623989,-1.52678 0,-1.7453 0.849675,-3.61331 2.239287,-4.92307 3.915856,-3.69082 14.464236,-5.08645 19.100016,-2.52708 1.64448,0.90792 2.96829,2.75868 2.67281,3.73673 -0.84794,2.80676 -5.66894,4.74481 -14.761893,5.93434 -2.958575,0.38704 -5.431722,0.75621 -5.495883,0.82036 -0.281824,0.28182 2.645985,1.85446 4.485237,2.4092 1.661525,0.50111 3.235307,0.60928 8.912189,0.61252 l 6.89433,0.004 0.21868,-2.35416 c 0.67581,-7.2757 4.28634,-10.97467 11.232551,-11.50765 5.40144,-0.41443 10.92164,2.91325 10.44234,6.29486 -0.44878,3.16623 -8.17502,7.50435 -16.008171,8.98823 -1.73731,0.32912 -1.60757,-0.57887 -1.02228,7.15461 0.17499,2.31213 0.42361,6.89013 0.55247,10.17336 0.21436,5.46097 0.18616,5.96948 -0.3311,5.96948 -0.31098,0 -0.62993,-0.18918 -0.70875,-0.42039 z m 4.872771,-26.03267 c 3.4009,-0.95184 7.92988,-3.0946 9.04133,-4.27769 1.53229,-1.63106 0.72986,-3.72722 -1.97419,-5.15716 -1.76875,-0.93532 -4.82369,-1.035 -7.17431,-0.23406 -3.086281,1.0516 -5.273791,4.74254 -5.273791,8.89841 v 1.95808 l 1.26117,-0.19376 c 0.69363,-0.10645 2.547541,-0.5538 4.119791,-0.99382 z m -21.187479,-3.96925 c 5.797358,-1.22269 9.752958,-3.05798 9.752958,-4.52511 0,-0.7389 -1.21128,-1.88596 -2.52231,-2.38856 -0.5549,-0.21274 -2.37097,-0.46595 -4.035708,-0.56272 -7.166989,-0.41652 -12.947904,2.74206 -12.947904,7.07449 v 1.32977 l 3.615323,-0.19795 c 1.988427,-0.10892 4.750366,-0.43732 6.137641,-0.72992 z m -12.909518,22.413 c -0.09694,-0.15685 0.483968,-1.88278 1.290902,-3.83542 0.806934,-1.95262 1.443309,-3.8262 1.414169,-4.16352 -0.02916,-0.3373 0.193184,-0.66442 0.49405,-0.7269 0.365591,-0.076 0.885309,0.47752 1.566922,1.66865 0.560936,0.98027 1.797578,2.69033 2.748091,3.80014 1.532999,1.78994 1.649803,2.03008 1.034083,2.12603 -0.83167,0.12959 -2.908393,-1.08822 -3.389894,-1.98793 -0.344021,-0.64281 -1.522397,-0.85043 -2.186071,-0.38518 -0.193851,0.13591 -0.763168,0.95812 -1.265151,1.82718 -0.977079,1.69154 -1.425709,2.13225 -1.707101,1.67695 z m 4.160332,-4.68636 c -0.0026,-0.13873 -0.15417,-0.47923 -0.336308,-0.75669 -0.294366,-0.44841 -0.367957,-0.44841 -0.662323,0 -0.496364,0.75612 -0.413389,1.00892 0.331161,1.00892 0.369941,0 0.670302,-0.1135 0.66747,-0.25223 z m -11.480746,4.05788 c -0.231764,-0.27927 -0.41023,-2.00453 -0.447,-4.32126 l -0.0612,-3.85641 1.372801,0.004 c 1.595517,0.004 4.532106,1.27574 5.744471,2.4881 1.505191,1.50521 0.800331,3.87927 -1.505822,5.07183 -1.538328,0.7955 -4.642768,1.16928 -5.103245,0.61443 z m 2.848044,-0.81995 c 1.402668,-0.72064 2.584287,-2.0858 2.584287,-2.9857 0,-1.14207 -1.434649,-2.51454 -3.326065,-3.18187 -0.806756,-0.28464 -1.51969,-0.51753 -1.584295,-0.51753 -0.06461,0 -0.05082,0.41618 0.03064,0.92485 0.08147,0.50867 0.241927,2.09773 0.356595,3.53125 0.221678,2.77134 0.425987,3.00623 1.93883,2.229 z m 14.793855,1.11344 c -0.844025,-0.52187 -1.654765,-6.95776 -0.876477,-6.95776 0.22167,0 1.459497,0.94587 2.750721,2.10192 2.111981,1.89092 3.051239,2.55514 2.615561,1.8497 -0.31673,-0.51284 -0.35035,-5.63613 -0.03762,-5.73706 0.669432,-0.21606 1.598596,6.6934 1.02493,7.62161 -0.407779,0.65978 -0.852495,0.44133 -2.744778,-1.34831 -1.008316,-0.95364 -1.894799,-1.67238 -1.969961,-1.59721 -0.07516,0.0751 0.0034,0.88658 0.174675,1.80313 0.327266,1.75179 -0.09914,2.78203 -0.937034,2.26398 z m 6.795561,-0.18731 c -0.60945,-0.44565 -0.60687,-0.47223 0.0817,-0.84077 0.39111,-0.20933 1.2975,-0.38059 2.01419,-0.38059 1.55327,0 2.56051,-0.6421 2.39067,-1.52405 -0.1342,-0.69686 -0.98361,-1.18021 -3.31321,-1.8854 -1.1123,-0.33667 -1.54075,-0.65003 -1.61661,-1.18232 -0.18498,-1.29804 2.50767,-2.49013 4.49692,-1.99086 1.33439,0.33491 0.8001,1.02909 -0.71952,0.93484 -1.55083,-0.0962 -2.61367,0.41971 -1.86219,0.9039 0.25672,0.16542 1.01342,0.39055 1.68155,0.50032 2.85667,0.46933 4.37063,2.38584 3.24356,4.10596 -1.06208,1.62093 -4.91851,2.44016 -6.39713,1.35897 z"
       id="path4583"
       inkscape:connector-curvature="0"
       sodipodi:nodetypes="cccsccccccscsccccscccccccsscsccscccssscccccccccccscsccccccsccccsccscccccccccccccccccsccccccccccscscscccscccccccccccssccccccccc" />
  </g>
</svg>
