<?xml version="1.0" encoding="UTF-8" standalone="no"?>
<!-- Created with Inkscape (http://www.inkscape.org/) -->

<svg
   xmlns:dc="http://purl.org/dc/elements/1.1/"
   xmlns:cc="http://creativecommons.org/ns#"
   xmlns:rdf="http://www.w3.org/1999/02/22-rdf-syntax-ns#"
   xmlns:svg="http://www.w3.org/2000/svg"
   xmlns="http://www.w3.org/2000/svg"
   xmlns:sodipodi="http://sodipodi.sourceforge.net/DTD/sodipodi-0.dtd"
   xmlns:inkscape="http://www.inkscape.org/namespaces/inkscape"
   width="69.68074mm"
   height="33.05228mm"
   viewBox="0 0 69.68074 33.05228"
   version="1.1"
   id="svg8"
   inkscape:version="0.92.5 (2060ec1f9f, 2020-04-08)"
   sodipodi:docname="hepdans.svg"
   inkscape:export-filename="/home/uyar/Projects/HEPDANS/hepdans.com/assets/static/favicon.png"
   inkscape:export-xdpi="96"
   inkscape:export-ydpi="96">
  <defs
     id="defs2" />
  <sodipodi:namedview
     id="base"
     pagecolor="#ffffff"
     bordercolor="#666666"
     borderopacity="1.0"
     inkscape:pageopacity="0.0"
     inkscape:pageshadow="2"
     inkscape:zoom="5.2969262"
     inkscape:cx="131.68015"
     inkscape:cy="62.461005"
     inkscape:document-units="mm"
     inkscape:current-layer="layer1"
     showgrid="false"
     fit-margin-top="0"
     fit-margin-left="0"
     fit-margin-right="0"
     fit-margin-bottom="0"
     inkscape:window-width="1920"
     inkscape:window-height="1029"
     inkscape:window-x="0"
     inkscape:window-y="0"
     inkscape:window-maximized="1" />
  <metadata
     id="metadata5">
    <rdf:RDF>
      <cc:Work
         rdf:about="">
        <dc:format>image/svg+xml</dc:format>
        <dc:type
           rdf:resource="http://purl.org/dc/dcmitype/StillImage" />
        <dc:title />
      </cc:Work>
    </rdf:RDF>
  </metadata>
  <g
     inkscape:label="Layer 1"
     inkscape:groupmode="layer"
     id="layer1"
     transform="translate(-46.804107,-147.43618)">
    <path
       style="fill:#000000;stroke-width:0.26458335"
       d="m 102.68015,180.15811 c -0.5887,-1.7266 -2.01821,-9.11489 -2.751599,-14.22135 l -0.437,-3.04271 -5.28633,-0.17421 c -7.15495,-0.23579 -10.317623,-1.01655 -12.524203,-3.0918 -1.080016,-1.01574 -2.22953,-1.15062 -2.043018,-0.23972 0.06704,0.32742 0.194149,1.33826 0.282461,2.2463 0.08831,0.90805 0.289087,2.01966 0.446162,2.47025 0.228002,0.65405 0.205938,0.89891 -0.109418,1.21426 -0.350295,0.3503 -0.45774,0.31527 -0.949095,-0.30939 -0.619972,-0.78816 -1.528742,-3.05756 -1.986196,-4.95996 l -0.302204,-1.25677 h -2.980095 c -1.639051,0 -3.069391,-0.004 -3.178532,-0.008 -0.267433,-0.0107 -0.527611,2.36399 -0.692454,6.32032 -0.07493,1.7983 -0.185743,3.31915 -0.246258,3.37967 -0.374806,0.3748 -1.040392,-0.42726 -1.410206,-1.69938 -0.33378,-1.14816 -0.402321,-2.2558 -0.309305,-4.99842 0.09304,-2.7433 0.04474,-3.52338 -0.218162,-3.52338 -0.793122,0 -6.814343,-0.8512 -9.492886,-1.34198 -4.027094,-0.73786 -7.338258,-1.71234 -9.525,-2.80322 -2.212668,-1.1038 -2.490406,-1.33501 -1.883468,-1.56791 0.266057,-0.1021 1.187927,0.15947 2.227056,0.6319 3.109738,1.4138 8.966494,2.78488 14.869954,3.48108 1.382448,0.16303 2.94785,0.36004 3.478672,0.4378 l 0.965129,0.14136 0.324184,-1.93691 c 0.178297,-1.0653 0.666723,-3.094 1.085389,-4.50822 0.418664,-1.41422 0.761209,-2.77919 0.761209,-3.03326 0,-0.43575 0.02567,-0.4363 0.452208,-0.01 0.573868,0.57387 0.557424,3.17714 -0.04364,6.90867 -0.23187,1.4395 -0.38889,2.64955 -0.34893,2.689 0.07193,0.071 4.702773,0.19041 5.528075,0.14253 0.357031,-0.0207 0.448537,-0.47902 0.549674,-2.75306 0.129453,-2.91067 0.720865,-4.73534 1.58659,-4.89506 0.56392,-0.10404 0.878155,1.33886 0.651581,2.9919 -0.08664,0.63213 -0.08437,1.93278 0.0051,2.89034 0.136422,1.46099 0.241533,1.74103 0.653478,1.74103 0.406067,0 0.490908,-0.20759 0.490908,-1.20116 0,-1.37307 0.668462,-2.84268 1.761707,-3.8731 3.080708,-2.90367 11.379403,-4.00165 15.026493,-1.98812 1.29375,0.71428 2.33523,2.17032 2.10277,2.93978 -0.6671,2.20815 -4.45991,3.73287 -11.613576,4.66871 -2.32759,0.30449 -4.27328,0.59492 -4.323757,0.64539 -0.221718,0.22172 2.081667,1.45896 3.528655,1.89538 1.307166,0.39424 2.545302,0.47934 7.011458,0.48189 l 5.42395,0.003 0.17204,-1.85208 c 0.53168,-5.72399 3.372189,-8.63407 8.836949,-9.05337 4.24945,-0.32605 8.59235,2.29193 8.21527,4.95233 -0.35307,2.49096 -6.43151,5.90387 -12.59405,7.07128 -1.36679,0.25892 -1.26472,-0.45541 -0.80426,5.62872 0.13767,1.81901 0.33326,5.42065 0.43465,8.00365 0.16864,4.29629 0.14645,4.69635 -0.26049,4.69635 -0.24466,0 -0.49558,-0.14883 -0.5576,-0.33073 z m 3.83354,-20.4806 c 2.67558,-0.74883 6.23864,-2.4346 7.11305,-3.36537 1.20549,-1.28319 0.5742,-2.9323 -1.55314,-4.05727 -1.39152,-0.73585 -3.79493,-0.81427 -5.64423,-0.18415 -2.42806,0.82732 -4.14902,3.73109 -4.14902,7.00062 v 1.54048 l 0.99219,-0.15244 c 0.5457,-0.0838 2.00422,-0.43569 3.24115,-0.78187 z M 89.844937,156.5548 c 4.560934,-0.96192 7.672914,-2.40579 7.672914,-3.56002 0,-0.58132 -0.95295,-1.48374 -1.98437,-1.87915 -0.43656,-0.16737 -1.86531,-0.36658 -3.175,-0.4427 -5.638461,-0.32769 -10.18646,2.15725 -10.18646,5.56568 v 1.04617 l 2.844271,-0.15573 c 1.564348,-0.0857 3.737239,-0.34406 4.828645,-0.57425 z m -10.156261,17.6329 c -0.07626,-0.1234 0.380751,-1.48123 1.015587,-3.01742 0.634836,-1.53618 1.135489,-3.01018 1.112565,-3.27555 -0.02294,-0.26537 0.151982,-0.52272 0.388681,-0.57188 0.287621,-0.0598 0.696497,0.37568 1.232739,1.31277 0.441304,0.7712 1.414203,2.11655 2.161997,2.98968 1.206051,1.40819 1.297943,1.59711 0.813541,1.6726 -0.654298,0.10197 -2.288111,-0.85614 -2.66692,-1.56396 -0.270651,-0.50571 -1.197711,-0.66906 -1.71984,-0.30303 -0.152508,0.10692 -0.600405,0.75378 -0.995328,1.43749 -0.768694,1.33078 -1.121643,1.6775 -1.343022,1.3193 z m 3.273044,-3.68688 c -0.0021,-0.10914 -0.12129,-0.37703 -0.264583,-0.59531 -0.231585,-0.35278 -0.289481,-0.35278 -0.521066,0 -0.390503,0.59486 -0.325225,0.79375 0.260533,0.79375 0.291042,0 0.527344,-0.0893 0.525116,-0.19844 z m -9.032208,3.19244 c -0.182335,-0.21971 -0.322739,-1.57701 -0.351666,-3.39965 l -0.04815,-3.03394 1.080019,0.003 c 1.255236,0.003 3.565528,1.00366 4.519327,1.95746 1.184174,1.18418 0.629642,3.05192 -1.184669,3.99014 -1.210244,0.62584 -3.652589,0.9199 -4.014859,0.48339 z m 2.240632,-0.64508 c 1.103516,-0.56694 2.033127,-1.64095 2.033127,-2.34892 0,-0.89851 -1.128676,-1.97826 -2.616703,-2.50327 -0.634696,-0.22393 -1.195581,-0.40715 -1.246407,-0.40715 -0.05083,0 -0.03998,0.32742 0.0241,0.7276 0.06409,0.40019 0.190331,1.65034 0.280543,2.77813 0.1744,2.18029 0.335135,2.36508 1.525329,1.75361 z m 11.638719,0.87597 c -0.664017,-0.41056 -1.301848,-5.47385 -0.689549,-5.47385 0.174394,0 1.148225,0.74414 2.164066,1.65364 1.661551,1.48763 2.400491,2.0102 2.057731,1.45521 -0.24918,-0.40347 -0.27563,-4.4341 -0.0296,-4.5135 0.52666,-0.16998 1.25766,5.26587 0.80634,5.99612 -0.32081,0.51907 -0.67068,0.34721 -2.159389,-1.06075 -0.793269,-0.75025 -1.490689,-1.3157 -1.549821,-1.25657 -0.05913,0.0591 0.0027,0.6975 0.137422,1.41858 0.257468,1.37817 -0.078,2.18869 -0.73719,1.78112 z m 5.346248,-0.14736 c -0.47947,-0.3506 -0.47744,-0.37151 0.0643,-0.66145 0.3077,-0.16468 1.02078,-0.29942 1.58462,-0.29942 1.222,0 2.01442,-0.50516 1.8808,-1.19901 -0.10558,-0.54824 -0.77383,-0.92851 -2.60659,-1.48329 -0.87507,-0.26488 -1.21215,-0.51141 -1.27183,-0.93017 -0.14553,-1.0212 1.97285,-1.95905 3.53785,-1.56626 1.0498,0.26348 0.62946,0.80961 -0.56607,0.73546 -1.22008,-0.0757 -2.05624,0.3302 -1.46503,0.71113 0.20197,0.13013 0.79728,0.30725 1.32292,0.39361 2.24742,0.36924 3.43849,1.877 2.55179,3.23027 -0.83556,1.27522 -3.86952,1.91974 -5.03279,1.06913 z"
       id="path4583"
       inkscape:connector-curvature="0" />
  </g>
</svg>
