<?xml version="1.0" encoding="UTF-8" standalone="no"?>
<!-- Created with Inkscape (http://www.inkscape.org/) -->

<svg
   xmlns:dc="http://purl.org/dc/elements/1.1/"
   xmlns:cc="http://creativecommons.org/ns#"
   xmlns:rdf="http://www.w3.org/1999/02/22-rdf-syntax-ns#"
   xmlns:svg="http://www.w3.org/2000/svg"
   xmlns="http://www.w3.org/2000/svg"
   xmlns:sodipodi="http://sodipodi.sourceforge.net/DTD/sodipodi-0.dtd"
   xmlns:inkscape="http://www.inkscape.org/namespaces/inkscape"
   version="1.1"
   id="svg2"
   xml:space="preserve"
   width="136.444"
   height="102.208"
   viewBox="0 0 136.444 102.208"
   sodipodi:docname="hepdans.svg"
   inkscape:version="0.92.5 (2060ec1f9f, 2020-04-08)"><metadata
     id="metadata8"><rdf:RDF><cc:Work
         rdf:about=""><dc:format>image/svg+xml</dc:format><dc:type
           rdf:resource="http://purl.org/dc/dcmitype/StillImage" /><dc:title></dc:title></cc:Work></rdf:RDF></metadata><defs
     id="defs6"><clipPath
       clipPathUnits="userSpaceOnUse"
       id="clipPath18"><path
         d="M 0,560.973 H 841.89 V 0 H 0 Z"
         id="path16"
         inkscape:connector-curvature="0" /></clipPath></defs><sodipodi:namedview
     pagecolor="#ffffff"
     bordercolor="#666666"
     borderopacity="1"
     objecttolerance="10"
     gridtolerance="10"
     guidetolerance="10"
     inkscape:pageopacity="0"
     inkscape:pageshadow="2"
     inkscape:window-width="1626"
     inkscape:window-height="963"
     id="namedview4"
     showgrid="false"
     inkscape:zoom="0.96395015"
     inkscape:cx="561.26001"
     inkscape:cy="373.98199"
     inkscape:window-x="0"
     inkscape:window-y="0"
     inkscape:window-maximized="0"
     inkscape:current-layer="g10" /><g
     id="g10"
     inkscape:groupmode="layer"
     inkscape:label="Hep-Dans_yeni-logo"
     transform="matrix(1.3333333,0,0,-1.3333333,0,102.20801)"><g
       id="g12"
       transform="matrix(0.13664936,0,0,0.13664936,-0.00495057,-2.6499423e-4)"><g
         id="g14"
         clip-path="url(#clipPath18)"><g
           id="g20"
           transform="translate(383.9893,222.7363)"><path
             d="M 0,0 C -0.697,-0.176 -1.564,-0.393 -2.581,-0.705 -4.34,-1.25 -5.521,-1.514 -6.192,-1.514 h -0.086 c -0.01,0.133 -0.013,0.348 0.008,0.696 0.103,1.859 2.266,8.127 3.667,11.525 C -1.674,8.984 -0.396,6.416 0.721,3.486 0.979,2.811 1.637,1.094 1.664,0.486 1.366,0.342 0.646,0.16 0,0 M 35.613,-19.586 C 20.014,-2.912 8.796,12.314 2.271,25.67 l -0.038,0.078 -0.047,0.074 c -2.354,3.608 -4.574,5.362 -6.787,5.362 -1.627,0 -3.069,-1.002 -4.058,-2.819 -1.396,-2.541 -0.389,-4.931 0.68,-6.293 -1.848,-5.301 -12.138,-32.289 -19.947,-49.613 l -0.045,-0.111 c -0.862,-2.442 -0.757,-4.778 0.283,-6.248 0.623,-0.879 1.555,-1.385 2.558,-1.385 0.918,0 2.688,0.435 4.221,3.346 0.745,1.419 1.928,3.472 3.296,5.851 3.308,5.748 7.38,12.822 9.13,17.5 0.841,0.137 1.89,0.315 3.047,0.514 3.615,0.617 8.914,1.521 11.333,1.678 0.45,-0.538 0.999,-1.245 1.613,-2.034 4.26,-5.488 12.189,-15.705 24.222,-18.431 l 0.081,-0.018 0.082,-0.01 c 0.574,-0.06 1.116,-0.091 1.61,-0.091 2.878,0 3.973,1.085 4.385,1.996 0.32,0.711 0.605,2.189 -1.087,4.111 -0.194,0.221 -0.601,0.658 -1.19,1.287 m 83.839,29.982 c -11.925,1.932 -14.679,2.676 -14.345,5.538 0.301,2.546 5.108,4.541 10.943,4.541 1.189,0 2.363,-0.084 3.396,-0.235 6.058,-1.318 8.466,-1.595 8.566,-1.607 l 0.221,-0.026 0.218,0.045 c 1.402,0.284 2.512,1.09 2.969,2.157 0.309,0.722 0.48,1.9 -0.467,3.41 -2.122,3.398 -14.361,3.437 -14.881,3.437 -1.259,0 -2.454,-0.045 -3.551,-0.136 -7.099,-0.604 -19.459,-4.09 -20.756,-13.331 l -0.014,-0.097 v -0.1 c 0,-9.412 10.192,-11.115 17.635,-12.357 2.409,-0.403 4.684,-0.783 6.269,-1.375 0.122,-0.037 12.224,-3.77 12.68,-11.867 0.072,-1.528 -0.511,-2.952 -1.732,-4.233 -1.904,-1.996 -7.149,-5.346 -20.883,-5.346 -0.401,0 -0.804,0.002 -1.236,0.008 -6.768,0 -10.046,-0.773 -11.309,-2.672 -0.984,-1.478 -0.469,-3.154 0.005,-4.285 1.525,-3.658 10.541,-5.324 18.27,-5.324 h 0.002 c 2.547,0 5.054,0.172 7.45,0.514 6.022,0.861 25.746,4.982 26.741,21.847 l 0.002,0.127 C 145.339,-1.063 135.574,6.92 119.452,10.396 M 282.583,130.123 C 247.047,101.93 189.818,92.984 180.195,91.65 c -0.98,8.532 -4.559,54.563 29.176,73.746 10.136,5.323 21.877,8.254 33.063,8.254 11.514,0 28.186,-3.148 42.276,-18.134 3.782,-5.93 8.439,-17.006 -2.127,-25.393 M 3.779,154.234 c 11.773,15.995 34.443,25.276 67.329,27.582 3.335,0.114 6.418,0.168 9.425,0.168 33.221,0 51.619,-6.857 54.682,-20.38 0.491,-2.165 -0.184,-4.36 -2.062,-6.711 -13.96,-17.477 -83.956,-32.223 -120.606,-32.225 -9.153,-0.572 -14.624,-0.943 -16.919,-1.102 -0.651,4.196 -1.986,18.895 8.151,32.668 m 296.884,11.039 -0.051,0.053 -0.056,0.047 c -18.265,15.326 -37.659,22.775 -59.289,22.775 -13.907,0 -28.686,-3.111 -45.207,-9.521 -19.804,-8.094 -33.814,-26.777 -40.514,-54.033 -4.223,-17.176 -4.314,-32.854 -4.229,-37.535 -4.357,-0.211 -19.621,-0.86 -53.424,-1.502 -1.137,-0.012 -2.262,-0.018 -3.373,-0.018 -64.091,0 -84.841,18.258 -89.916,24.238 10.273,0.862 49.927,4.432 84.58,10.885 42.171,10.902 56.444,23.658 60.991,32.44 2.979,5.753 1.804,9.814 1.598,10.423 -5.738,19.795 -29.907,31.149 -66.319,31.149 -32.39,0 -67.235,-9.272 -84.697,-22.518 -26.897,-18.965 -24.342,-44.506 -23.048,-51.463 h -8.082 c -2.539,16.967 -1.971,34.055 -1.592,45.452 0.114,3.435 0.213,6.404 0.213,8.802 0,7.879 -0.433,16.285 -5.595,16.285 -0.577,0 -1.194,-0.117 -1.834,-0.347 l -0.071,-0.028 -0.068,-0.033 c -14.325,-6.992 -15.72,-42.437 -14.287,-71.5 -2.206,-0.23 -5.476,-0.347 -9.751,-0.347 -14.116,0 -35.982,1.293 -45.524,1.994 8.438,48.129 11.699,74.605 6.312,85.394 -1.867,3.739 -3.027,5.063 -4.434,5.063 -2.137,0 -2.502,-2.619 -3.008,-6.242 -0.263,-1.883 -0.561,-4.018 -1.096,-5.733 l -0.681,-2.152 c -2.748,-8.666 -9.185,-28.959 -12.783,-46.951 -1.766,-8.838 -2.499,-13.912 -3.035,-17.618 -0.595,-4.119 -0.895,-6.197 -2.068,-9.576 -107.968,10.035 -157.044,27.481 -173.163,34.532 -3.634,1.585 -6.543,3.064 -9.109,4.369 -4.845,2.463 -8.345,4.242 -12.186,4.242 -0.148,0 -0.295,-0.002 -0.445,-0.008 -3.521,-0.125 -4.741,-2.109 -4.709,-3.924 0.037,-2.012 1.724,-4.439 3.766,-4.439 1.615,0 4.101,-0.862 6.076,-2.098 1.362,-1.121 16.62,-13.039 61.691,-24.111 44.157,-10.858 103.136,-18.063 126.588,-20.049 -10.064,-59.162 2.815,-89.129 7.23,-91.899 1.398,-0.876 2.95,-1.359 4.371,-1.359 2.968,0 4.993,1.988 5.284,5.192 l 0.009,0.095 -0.005,0.096 c -1.533,33.867 2.858,75.248 4.495,84.896 12.895,-0.92 37.187,-1.595 51.137,-1.595 2.46,0 4.506,0.021 6.106,0.062 4.173,-26.576 19.12,-55.914 22.645,-59.887 1.125,-1.265 2.625,-1.962 4.226,-1.962 1.744,0 3.426,0.822 4.616,2.255 1.468,1.768 2.003,4.194 1.509,6.831 l -0.033,0.173 -0.074,0.162 c -4.445,9.573 -7.442,44.889 -8.046,52.528 0.701,0.019 1.627,0.039 2.711,0.039 2.172,0 5.404,-0.074 8.779,-0.416 C 5.273,76.082 68.156,69.596 117.28,69.596 c 12.513,0 22.978,0.4 29.902,0.664 2.517,0.095 4.51,0.172 5.941,0.203 5.039,-37.955 11.732,-78.793 18.4,-112.246 6.776,-33.988 11.679,-51.953 14.574,-53.397 0.738,-0.369 1.609,-0.748 2.468,-0.748 0.745,0 1.407,0.28 1.916,0.805 2.033,2.098 1.839,8.094 1.023,33.328 l -0.2,6.221 c -1.658,43.666 -4.999,87.654 -7.21,116.762 -0.366,4.814 -0.699,9.203 -0.988,13.093 78.75,13.905 107.897,41.258 117.508,50.278 6.136,5.759 9.467,12.441 9.634,19.324 0.178,7.322 -3.137,14.719 -9.585,21.39 M 78.877,35.035 c -1.319,0 -2.93,-1.004 -3.128,-3.832 -0.154,-2.092 0.417,-11.283 1.24,-24.041 0.446,-6.9 0.866,-13.42 0.866,-15.012 0,-1.261 0.115,-2.578 0.223,-3.697 -9.021,9.381 -18.067,17.44 -26.273,23.395 -3.413,2.478 -5.458,4.713 -6.952,6.343 -1.521,1.661 -2.526,2.756 -3.937,2.756 l -0.13,-0.002 C 39.383,20.936 38.351,20.531 37.633,19.713 35.994,17.848 36.434,14.48 37.396,7.104 37.844,3.672 38.4,-0.598 38.899,-5.877 c 0.688,-7.258 2.381,-20.055 6.003,-24.225 1.665,-1.918 3.404,-2.32 4.568,-2.32 1.592,0 3.234,0.76 4.394,2.035 2.232,2.455 1.413,8.102 -0.107,17.112 -0.467,2.767 -0.949,5.63 -1.247,8.214 0,0 -0.485,4.153 -0.542,4.657 1.714,-1.506 5.238,-4.938 8.423,-8.037 6.568,-6.395 14.013,-13.643 16.824,-15.364 2.091,-1.275 4.021,-1.922 5.739,-1.922 h 0.001 c 1.912,0 3.484,0.817 4.545,2.362 1.063,1.547 1.602,3.842 1.602,6.824 0,12.488 -5.473,43.365 -6.342,47.412 -0.531,2.49 -2.091,4.164 -3.883,4.164 M -67.174,-25.141 c -2.083,-0.336 -3.723,-0.722 -4.969,-1.181 0.183,3.404 -0.572,11.898 -1.37,20.881 -0.666,7.502 -1.356,15.257 -1.404,19.31 -0.039,5.02 -0.528,8.561 -1.458,10.6 0.075,-0.008 0.15,-0.016 0.227,-0.024 26.307,-6.285 35.403,-17.379 35.141,-25.716 0,-12.766 -18.573,-22.645 -26.167,-23.87 m 16.688,50.077 c -11.091,4.878 -24.33,6.556 -28.497,6.791 -0.252,0.013 -0.496,0.019 -0.733,0.019 -3.295,0 -5.852,-1.367 -6.081,-3.252 -0.114,-0.935 0.413,-2.035 1.839,-2.43 0.289,-0.107 1.23,-0.439 2.793,-0.798 -3.398,-4.207 -3.297,-17.469 -3.29,-18.129 0.021,-2.088 0.027,-4.192 0.034,-6.28 0.041,-12.816 0.079,-24.923 3.345,-30.009 1.754,-2.729 3.392,-4.055 5.007,-4.055 h 0.001 c 0.978,0 2.103,0.447 2.906,2.103 44.659,0.852 47.466,26.311 47.641,29.274 0.255,10.769 -12.354,21.203 -24.965,26.766"
             style="fill:#231f20;fill-opacity:1;fill-rule:nonzero;stroke:none"
             id="path22"
             inkscape:connector-curvature="0" /></g></g></g></g></svg>